<svg id="Capa_1" enable-background="new 0 0 609.866 609.866" height="512" viewBox="0 0 609.866 609.866" width="512" xmlns="http://www.w3.org/2000/svg"><g><path clip-rule="evenodd" d="m297.717 340.807h-155.758l77.879-77.879zm197.036-.06c-.488.04-.98.06-1.479.06h-144.823l-50.238-50.238 73.181-73.181zm16.458-34.275v-198.849c0-9.907-8.031-17.937-17.937-17.937h-376.682c-9.906 0-17.937 8.031-17.937 17.937v215.247c0 3.041.757 5.905 2.092 8.415l106.407-106.407c7.005-7.005 18.363-7.005 25.367 0l40.324 40.324 85.864-85.865c7.005-7.005 18.362-7.005 25.367 0zm-394.619 88.147c-9.906 0-17.937 8.031-17.937 17.937v89.686c0 9.907 8.031 17.937 17.937 17.937h152.467c9.906 0 17.937-8.031 17.937-17.937v-89.686c0-9.907-8.031-17.937-17.937-17.937zm224.215 0c-9.906 0-17.937 8.031-17.937 17.937v89.686c0 9.907 8.031 17.937 17.937 17.937h152.467c9.906 0 17.937-8.031 17.937-17.937v-89.686c0-9.907-8.031-17.937-17.937-17.937zm208.901-162.518c-3.5 3.5-3.525 9.149.064 12.738l12.565 12.564c3.535 3.535 9.216 3.586 12.732.07l29.543-29.544c7.005-7.005 7.005-18.362 0-25.367l-29.543-29.544c-3.496-3.497-9.143-3.519-12.732.07l-12.565 12.564c-3.535 3.535-3.558 9.245-.064 12.738l16.854 16.854zm-489.55-33.708c3.5-3.5 3.525-9.149-.064-12.738l-12.565-12.565c-3.535-3.535-9.216-3.586-12.732-.07l-29.543 29.543c-7.005 7.005-7.005 18.362 0 25.367l29.543 29.544c3.496 3.497 9.143 3.519 12.732-.07l12.565-12.564c3.535-3.535 3.558-9.245.064-12.738l-16.854-16.854z" fill-rule="evenodd"/></g></svg>