<svg id="Capa_1" enable-background="new 0 0 480.133 480.133" height="512" viewBox="0 0 480.133 480.133" width="512" xmlns="http://www.w3.org/2000/svg"><g><path d="m404.455 164.613c.082-49.522-22.222-96.428-60.685-127.622-38.935-31.566-90.064-43.813-139.075-33.313-88.541 19.409-144.585 106.919-125.176 195.461 5.757 26.265 17.88 50.714 35.301 71.196 24.058 27.302 45.852 56.519 65.165 87.36-43.971 8.141-84.01 26.557-84.01 58.438 0 42.016 72.438 64 144 64s144-21.984 144-64c0-31.923-40.144-50.349-84.182-58.48 18.911-30.52 40.528-59.278 64.589-85.926 25.786-29.735 40.011-67.756 40.073-107.114zm-52.48 251.52c0 9.28-39.251 32-112 32s-112-22.72-112-32c0-5.907 20.688-22.282 69.062-28.938l3.002 5.251c12.049 22.055 39.695 30.166 61.749 18.117 7.576-4.139 13.818-10.347 17.998-17.9l3.126-5.469c48.375 6.657 69.063 23.032 69.063 28.939zm-84.749-66.579-15.36 27.549c-2.335 4.384-6.924 7.097-11.891 7.03-5.046.034-9.683-2.769-12-7.251l-13.062-23.248c-21.691-37.136-47.064-71.995-75.738-104.048-47.254-55.629-40.465-139.033 15.164-186.287 16.38-13.914 35.907-23.623 56.887-28.287 9.282-1.93 18.737-2.904 28.218-2.906 72.988-.466 132.536 58.324 133.003 131.313.205 32.054-11.246 63.09-32.222 87.329-27.666 30.337-52.128 63.448-72.999 98.806z"/><path d="m239.975 89.147c-41.617-.005-75.358 33.727-75.363 75.344s33.727 75.358 75.344 75.363 75.358-33.727 75.363-75.344c0-.006 0-.013 0-.019-.051-41.59-33.754-75.293-75.344-75.344zm0 118.72c-23.944.005-43.358-19.4-43.363-43.344s19.4-43.358 43.344-43.363 43.358 19.4 43.363 43.344v.003c-.03 23.926-19.418 43.314-43.344 43.344z"/></g></svg>