<svg id="Layer_2" height="512" viewBox="0 0 32 32" width="512" xmlns="http://www.w3.org/2000/svg" data-name="Layer 2"><path d="m16 1a15 15 0 1 0 15 15 15.00543 15.00543 0 0 0 -15-15zm-2.34 15a3.15068 3.15068 0 0 1 -.12.87l4.04 2.58a3.06947 3.06947 0 0 1 2.06-.77 3.16 3.16 0 1 1 -3.16 3.16 2.77826 2.77826 0 0 1 .13-.87l-4.04-2.58a3.16 3.16 0 1 1 0-4.78l4.04-2.58a2.778 2.778 0 0 1 -.13-.87 3.165 3.165 0 1 1 3.16 3.16 3.06977 3.06977 0 0 1 -2.06-.77l-4.04 2.58a3.15037 3.15037 0 0 1 .12.87z"/></svg>