<svg id="Layer_2" height="512" viewBox="0 0 16 16" width="512" xmlns="http://www.w3.org/2000/svg" data-name="Layer 2"><path d="m2.11 2.5a1.6108 1.6108 0 0 0 -1.483.92 1.4151 1.4151 0 0 0 .2436 1.5361l2.437 2.7509a.4273.4273 0 0 1 .0005.586l-2.4375 2.7509a1.4151 1.4151 0 0 0 -.2436 1.5361 1.6108 1.6108 0 0 0 1.483.92h8.2382a1.6507 1.6507 0 0 0 1.2393-.5439l3.5439-4a1.4247 1.4247 0 0 0 0-1.9122l-3.5439-4a1.6507 1.6507 0 0 0 -1.2394-.5439zm12.2733 5.207a.4268.4268 0 0 1 0 .586l-3.5439 4a.6625.6625 0 0 1 -.4913.207h-8.2381a.6007.6007 0 0 1 -.5713-.3306.4115.4115 0 0 1 .08-.4624l2.4379-2.7509a1.4264 1.4264 0 0 0 0-1.9122l-2.4379-2.7509a.4115.4115 0 0 1 -.08-.4624.6007.6007 0 0 1 .5713-.3306h8.2382a.6625.6625 0 0 1 .4913.207z"/></svg>