<svg id="Outline" height="512" viewBox="0 0 16 16" width="512" xmlns="http://www.w3.org/2000/svg"><path d="m3.1807 15.25a1.4679 1.4679 0 0 0 1.3818.1372l3.2575-1.3491a.4674.4674 0 0 1 .3594 0l3.2578 1.3486a1.4692 1.4692 0 0 0 1.3818-.1372 1.5382 1.5382 0 0 0 .681-1.2856v-11.9287a1.52 1.52 0 0 0 -1.5-1.5352h-8a1.52 1.52 0 0 0 -1.5 1.5352v11.9287a1.5382 1.5382 0 0 0 .6807 1.2861zm.3193-13.2148a.5194.5194 0 0 1 .5-.5352h8a.5194.5194 0 0 1 .5.5352v11.9287a.5354.5354 0 0 1 -.2354.4541.4635.4635 0 0 1 -.4443.0449l-3.2578-1.3486a1.4589 1.4589 0 0 0 -1.125 0l-3.2575 1.3486a.4645.4645 0 0 1 -.4443-.0449.5354.5354 0 0 1 -.2357-.4541z"/><path d="m5.5 4.5h5a.5.5 0 0 0 0-1h-5a.5.5 0 0 0 0 1z"/></svg>